<svg width="1532" height="352" viewBox="0 0 1532 352" fill="none" xmlns="http://www.w3.org/2000/svg">
<path d="M215.381 151.741C215.381 151.741 237.462 51.2243 131.661 43L37.8196 195.603C16.6594 301.603 121.54 308 121.54 308L192.381 195.603C192.381 195.603 173.061 292.465 276.102 308L370.863 151.741C370.863 151.741 388.343 52.1375 286.222 43L215.381 151.741Z" fill="black"/>
<path d="M411.302 263V88H518.677V109H432.302V158.75H503.052V179.75H432.302V242H518.677V263H411.302ZM646.567 185.25V263H625.567V189.875C625.567 183.542 624.026 177.792 620.942 172.625C617.859 167.458 613.734 163.375 608.567 160.375C603.401 157.292 597.651 155.75 591.317 155.75C585.067 155.75 579.317 157.292 574.067 160.375C568.901 163.375 564.776 167.458 561.692 172.625C558.609 177.792 557.067 183.542 557.067 189.875V263H536.067V138H557.067V153.625C561.484 147.792 567.067 143.167 573.817 139.75C580.567 136.25 587.901 134.5 595.817 134.5C605.151 134.5 613.651 136.792 621.317 141.375C629.067 145.875 635.192 151.958 639.692 159.625C644.276 167.292 646.567 175.833 646.567 185.25ZM661.565 263V138H682.565V153.625C686.982 147.792 692.565 143.167 699.315 139.75C706.065 136.25 713.399 134.5 721.315 134.5C726.149 134.5 730.815 135.125 735.315 136.375L726.815 157.375C723.399 156.292 720.065 155.75 716.815 155.75C710.565 155.75 704.815 157.292 699.565 160.375C694.399 163.375 690.274 167.458 687.19 172.625C684.107 177.792 682.565 183.542 682.565 189.875V263H661.565ZM789.329 266.25C777.829 266.25 767.329 263.292 757.829 257.375C748.412 251.458 740.871 243.542 735.204 233.625C729.621 223.625 726.829 212.583 726.829 200.5C726.829 191.333 728.454 182.792 731.704 174.875C734.954 166.875 739.412 159.875 745.079 153.875C750.829 147.792 757.496 143.042 765.079 139.625C772.662 136.208 780.746 134.5 789.329 134.5C798.746 134.5 807.371 136.417 815.204 140.25C823.121 144 829.871 149.25 835.454 156C841.121 162.75 845.329 170.583 848.079 179.5C850.912 188.417 851.954 197.958 851.204 208.125H749.204C750.204 215.208 752.537 221.542 756.204 227.125C759.871 232.625 764.537 237 770.204 240.25C775.954 243.5 782.329 245.167 789.329 245.25C796.829 245.25 803.621 243.333 809.704 239.5C815.787 235.583 820.704 230.25 824.454 223.5L845.829 228.5C840.829 239.583 833.287 248.667 823.204 255.75C813.121 262.75 801.829 266.25 789.329 266.25ZM748.579 191.625H830.079C829.412 184.625 827.162 178.25 823.329 172.5C819.496 166.667 814.621 162 808.704 158.5C802.787 155 796.329 153.25 789.329 153.25C782.329 153.25 775.912 154.958 770.079 158.375C764.246 161.792 759.412 166.417 755.579 172.25C751.829 178 749.496 184.458 748.579 191.625ZM962.036 138H983.036V263H962.036L961.161 241.875C957.244 249.125 951.828 255 944.911 259.5C938.078 264 929.911 266.25 920.411 266.25C911.244 266.25 902.661 264.542 894.661 261.125C886.661 257.625 879.578 252.833 873.411 246.75C867.328 240.583 862.578 233.5 859.161 225.5C855.744 217.5 854.036 208.875 854.036 199.625C854.036 190.708 855.703 182.292 859.036 174.375C862.369 166.458 866.994 159.542 872.911 153.625C878.911 147.625 885.828 142.958 893.661 139.625C901.494 136.208 909.911 134.5 918.911 134.5C928.744 134.5 937.369 136.833 944.786 141.5C952.203 146.083 958.203 152.042 962.786 159.375L962.036 138ZM920.036 245.875C928.286 245.875 935.411 243.875 941.411 239.875C947.494 235.792 952.161 230.292 955.411 223.375C958.744 216.458 960.411 208.833 960.411 200.5C960.411 192 958.744 184.333 955.411 177.5C952.078 170.583 947.369 165.125 941.286 161.125C935.286 157.042 928.203 155 920.036 155C911.786 155 904.286 157.042 897.536 161.125C890.786 165.208 885.411 170.708 881.411 177.625C877.494 184.458 875.536 192.083 875.536 200.5C875.536 208.917 877.578 216.583 881.661 223.5C885.744 230.333 891.161 235.792 897.911 239.875C904.661 243.875 912.036 245.875 920.036 245.875ZM1081.7 230L1100.45 240.125C1094.79 248.042 1087.58 254.375 1078.83 259.125C1070.16 263.875 1060.75 266.25 1050.58 266.25C1039.08 266.25 1028.58 263.292 1019.08 257.375C1009.66 251.458 1002.12 243.542 996.454 233.625C990.871 223.625 988.079 212.583 988.079 200.5C988.079 191.333 989.704 182.792 992.954 174.875C996.204 166.875 1000.66 159.875 1006.33 153.875C1012.08 147.792 1018.75 143.042 1026.33 139.625C1033.91 136.208 1042 134.5 1050.58 134.5C1060.75 134.5 1070.16 136.875 1078.83 141.625C1087.58 146.375 1094.79 152.75 1100.45 160.75L1081.7 170.875C1077.7 165.958 1072.95 162.167 1067.45 159.5C1061.95 156.833 1056.33 155.5 1050.58 155.5C1042.83 155.5 1035.79 157.583 1029.45 161.75C1023.2 165.833 1018.25 171.292 1014.58 178.125C1010.91 184.958 1009.08 192.417 1009.08 200.5C1009.08 208.583 1010.91 216.042 1014.58 222.875C1018.33 229.625 1023.33 235.042 1029.58 239.125C1035.91 243.208 1042.91 245.25 1050.58 245.25C1056.75 245.25 1062.54 243.833 1067.95 241C1073.37 238.167 1077.95 234.5 1081.7 230ZM1221.32 185.25V263H1200.32V189.875C1200.32 183.542 1198.78 177.792 1195.7 172.625C1192.61 167.458 1188.49 163.375 1183.32 160.375C1178.16 157.292 1172.41 155.75 1166.07 155.75C1159.82 155.75 1154.07 157.292 1148.82 160.375C1143.66 163.375 1139.53 167.458 1136.45 172.625C1133.36 177.792 1131.82 183.542 1131.82 189.875V263H1110.82V75.5H1131.82V153.625C1136.24 147.792 1141.82 143.167 1148.57 139.75C1155.32 136.25 1162.66 134.5 1170.57 134.5C1179.91 134.5 1188.41 136.792 1196.07 141.375C1203.82 145.875 1209.95 151.958 1214.45 159.625C1219.03 167.292 1221.32 175.833 1221.32 185.25ZM1288.88 266.25C1277.38 266.25 1266.88 263.292 1257.38 257.375C1247.96 251.458 1240.42 243.542 1234.75 233.625C1229.17 223.625 1226.38 212.583 1226.38 200.5C1226.38 191.333 1228 182.792 1231.25 174.875C1234.5 166.875 1238.96 159.875 1244.63 153.875C1250.38 147.792 1257.05 143.042 1264.63 139.625C1272.21 136.208 1280.3 134.5 1288.88 134.5C1298.3 134.5 1306.92 136.417 1314.75 140.25C1322.67 144 1329.42 149.25 1335 156C1340.67 162.75 1344.88 170.583 1347.63 179.5C1350.46 188.417 1351.5 197.958 1350.75 208.125H1248.75C1249.75 215.208 1252.09 221.542 1255.75 227.125C1259.42 232.625 1264.09 237 1269.75 240.25C1275.5 243.5 1281.88 245.167 1288.88 245.25C1296.38 245.25 1303.17 243.333 1309.25 239.5C1315.34 235.583 1320.25 230.25 1324 223.5L1345.38 228.5C1340.38 239.583 1332.84 248.667 1322.75 255.75C1312.67 262.75 1301.38 266.25 1288.88 266.25ZM1248.13 191.625H1329.63C1328.96 184.625 1326.71 178.25 1322.88 172.5C1319.05 166.667 1314.17 162 1308.25 158.5C1302.34 155 1295.88 153.25 1288.88 153.25C1281.88 153.25 1275.46 154.958 1269.63 158.375C1263.8 161.792 1258.96 166.417 1255.13 172.25C1251.38 178 1249.05 184.458 1248.13 191.625ZM1461.71 75.5H1482.71V263H1461.71V241.75C1457.46 249.083 1451.75 255 1444.59 259.5C1437.42 264 1429 266.25 1419.34 266.25C1410.25 266.25 1401.75 264.542 1393.84 261.125C1385.92 257.708 1378.92 253 1372.84 247C1366.84 240.917 1362.13 233.917 1358.71 226C1355.3 218.083 1353.59 209.583 1353.59 200.5C1353.59 191.417 1355.3 182.917 1358.71 175C1362.13 167 1366.84 160 1372.84 154C1378.92 147.917 1385.92 143.167 1393.84 139.75C1401.75 136.333 1410.25 134.625 1419.34 134.625C1429 134.625 1437.42 136.875 1444.59 141.375C1451.75 145.875 1457.46 151.792 1461.71 159.125V75.5ZM1419.59 245.875C1427.84 245.875 1434.96 243.875 1440.96 239.875C1447.05 235.792 1451.71 230.292 1454.96 223.375C1458.3 216.458 1459.96 208.833 1459.96 200.5C1459.96 192 1458.3 184.333 1454.96 177.5C1451.63 170.583 1446.92 165.125 1440.84 161.125C1434.84 157.042 1427.75 155 1419.59 155C1411.34 155 1403.84 157.042 1397.09 161.125C1390.42 165.208 1385.09 170.708 1381.09 177.625C1377.09 184.458 1375.09 192.083 1375.09 200.5C1375.09 208.917 1377.13 216.583 1381.21 223.5C1385.3 230.333 1390.71 235.792 1397.46 239.875C1404.21 243.875 1411.59 245.875 1419.59 245.875Z" fill="black"/>
</svg>
