<svg width="1532" height="470" viewBox="0 0 1532 470" fill="none" xmlns="http://www.w3.org/2000/svg">
<path d="M212.381 193.741C212.381 193.741 234.462 93.2243 128.661 85L34.8196 237.603C13.6594 343.603 118.54 350 118.54 350L189.381 237.603C189.381 237.603 170.061 334.465 273.102 350L367.863 193.741C367.863 193.741 385.343 94.1375 283.222 85L212.381 193.741Z" fill="black"/>
<path d="M405.302 275V100H512.677V121H426.302V170.75H497.052V191.75H426.302V254H512.677V275H405.302ZM640.567 197.25V275H619.567V201.875C619.567 195.542 618.026 189.792 614.942 184.625C611.859 179.458 607.734 175.375 602.567 172.375C597.401 169.292 591.651 167.75 585.317 167.75C579.067 167.75 573.317 169.292 568.067 172.375C562.901 175.375 558.776 179.458 555.692 184.625C552.609 189.792 551.067 195.542 551.067 201.875V275H530.067V150H551.067V165.625C555.484 159.792 561.067 155.167 567.817 151.75C574.567 148.25 581.901 146.5 589.817 146.5C599.151 146.5 607.651 148.792 615.317 153.375C623.067 157.875 629.192 163.958 633.692 171.625C638.276 179.292 640.567 187.833 640.567 197.25ZM655.565 275V150H676.565V165.625C680.982 159.792 686.565 155.167 693.315 151.75C700.065 148.25 707.399 146.5 715.315 146.5C720.149 146.5 724.815 147.125 729.315 148.375L720.815 169.375C717.399 168.292 714.065 167.75 710.815 167.75C704.565 167.75 698.815 169.292 693.565 172.375C688.399 175.375 684.274 179.458 681.19 184.625C678.107 189.792 676.565 195.542 676.565 201.875V275H655.565ZM783.329 278.25C771.829 278.25 761.329 275.292 751.829 269.375C742.412 263.458 734.871 255.542 729.204 245.625C723.621 235.625 720.829 224.583 720.829 212.5C720.829 203.333 722.454 194.792 725.704 186.875C728.954 178.875 733.412 171.875 739.079 165.875C744.829 159.792 751.496 155.042 759.079 151.625C766.662 148.208 774.746 146.5 783.329 146.5C792.746 146.5 801.371 148.417 809.204 152.25C817.121 156 823.871 161.25 829.454 168C835.121 174.75 839.329 182.583 842.079 191.5C844.912 200.417 845.954 209.958 845.204 220.125H743.204C744.204 227.208 746.537 233.542 750.204 239.125C753.871 244.625 758.537 249 764.204 252.25C769.954 255.5 776.329 257.167 783.329 257.25C790.829 257.25 797.621 255.333 803.704 251.5C809.787 247.583 814.704 242.25 818.454 235.5L839.829 240.5C834.829 251.583 827.287 260.667 817.204 267.75C807.121 274.75 795.829 278.25 783.329 278.25ZM742.579 203.625H824.079C823.412 196.625 821.162 190.25 817.329 184.5C813.496 178.667 808.621 174 802.704 170.5C796.787 167 790.329 165.25 783.329 165.25C776.329 165.25 769.912 166.958 764.079 170.375C758.246 173.792 753.412 178.417 749.579 184.25C745.829 190 743.496 196.458 742.579 203.625ZM956.036 150H977.036V275H956.036L955.161 253.875C951.244 261.125 945.828 267 938.911 271.5C932.078 276 923.911 278.25 914.411 278.25C905.244 278.25 896.661 276.542 888.661 273.125C880.661 269.625 873.578 264.833 867.411 258.75C861.328 252.583 856.578 245.5 853.161 237.5C849.744 229.5 848.036 220.875 848.036 211.625C848.036 202.708 849.703 194.292 853.036 186.375C856.369 178.458 860.994 171.542 866.911 165.625C872.911 159.625 879.828 154.958 887.661 151.625C895.494 148.208 903.911 146.5 912.911 146.5C922.744 146.5 931.369 148.833 938.786 153.5C946.203 158.083 952.203 164.042 956.786 171.375L956.036 150ZM914.036 257.875C922.286 257.875 929.411 255.875 935.411 251.875C941.494 247.792 946.161 242.292 949.411 235.375C952.744 228.458 954.411 220.833 954.411 212.5C954.411 204 952.744 196.333 949.411 189.5C946.078 182.583 941.369 177.125 935.286 173.125C929.286 169.042 922.203 167 914.036 167C905.786 167 898.286 169.042 891.536 173.125C884.786 177.208 879.411 182.708 875.411 189.625C871.494 196.458 869.536 204.083 869.536 212.5C869.536 220.917 871.578 228.583 875.661 235.5C879.744 242.333 885.161 247.792 891.911 251.875C898.661 255.875 906.036 257.875 914.036 257.875ZM1075.7 242L1094.45 252.125C1088.79 260.042 1081.58 266.375 1072.83 271.125C1064.16 275.875 1054.75 278.25 1044.58 278.25C1033.08 278.25 1022.58 275.292 1013.08 269.375C1003.66 263.458 996.121 255.542 990.454 245.625C984.871 235.625 982.079 224.583 982.079 212.5C982.079 203.333 983.704 194.792 986.954 186.875C990.204 178.875 994.662 171.875 1000.33 165.875C1006.08 159.792 1012.75 155.042 1020.33 151.625C1027.91 148.208 1036 146.5 1044.58 146.5C1054.75 146.5 1064.16 148.875 1072.83 153.625C1081.58 158.375 1088.79 164.75 1094.45 172.75L1075.7 182.875C1071.7 177.958 1066.95 174.167 1061.45 171.5C1055.95 168.833 1050.33 167.5 1044.58 167.5C1036.83 167.5 1029.79 169.583 1023.45 173.75C1017.2 177.833 1012.25 183.292 1008.58 190.125C1004.91 196.958 1003.08 204.417 1003.08 212.5C1003.08 220.583 1004.91 228.042 1008.58 234.875C1012.33 241.625 1017.33 247.042 1023.58 251.125C1029.91 255.208 1036.91 257.25 1044.58 257.25C1050.75 257.25 1056.54 255.833 1061.95 253C1067.37 250.167 1071.95 246.5 1075.7 242ZM1215.32 197.25V275H1194.32V201.875C1194.32 195.542 1192.78 189.792 1189.7 184.625C1186.61 179.458 1182.49 175.375 1177.32 172.375C1172.16 169.292 1166.41 167.75 1160.07 167.75C1153.82 167.75 1148.07 169.292 1142.82 172.375C1137.66 175.375 1133.53 179.458 1130.45 184.625C1127.36 189.792 1125.82 195.542 1125.82 201.875V275H1104.82V87.5H1125.82V165.625C1130.24 159.792 1135.82 155.167 1142.57 151.75C1149.32 148.25 1156.66 146.5 1164.57 146.5C1173.91 146.5 1182.41 148.792 1190.07 153.375C1197.82 157.875 1203.95 163.958 1208.45 171.625C1213.03 179.292 1215.32 187.833 1215.32 197.25ZM1282.88 278.25C1271.38 278.25 1260.88 275.292 1251.38 269.375C1241.96 263.458 1234.42 255.542 1228.75 245.625C1223.17 235.625 1220.38 224.583 1220.38 212.5C1220.38 203.333 1222 194.792 1225.25 186.875C1228.5 178.875 1232.96 171.875 1238.63 165.875C1244.38 159.792 1251.05 155.042 1258.63 151.625C1266.21 148.208 1274.3 146.5 1282.88 146.5C1292.3 146.5 1300.92 148.417 1308.75 152.25C1316.67 156 1323.42 161.25 1329 168C1334.67 174.75 1338.88 182.583 1341.63 191.5C1344.46 200.417 1345.5 209.958 1344.75 220.125H1242.75C1243.75 227.208 1246.09 233.542 1249.75 239.125C1253.42 244.625 1258.09 249 1263.75 252.25C1269.5 255.5 1275.88 257.167 1282.88 257.25C1290.38 257.25 1297.17 255.333 1303.25 251.5C1309.34 247.583 1314.25 242.25 1318 235.5L1339.38 240.5C1334.38 251.583 1326.84 260.667 1316.75 267.75C1306.67 274.75 1295.38 278.25 1282.88 278.25ZM1242.13 203.625H1323.63C1322.96 196.625 1320.71 190.25 1316.88 184.5C1313.05 178.667 1308.17 174 1302.25 170.5C1296.34 167 1289.88 165.25 1282.88 165.25C1275.88 165.25 1269.46 166.958 1263.63 170.375C1257.8 173.792 1252.96 178.417 1249.13 184.25C1245.38 190 1243.05 196.458 1242.13 203.625ZM1455.71 87.5H1476.71V275H1455.71V253.75C1451.46 261.083 1445.75 267 1438.59 271.5C1431.42 276 1423 278.25 1413.34 278.25C1404.25 278.25 1395.75 276.542 1387.84 273.125C1379.92 269.708 1372.92 265 1366.84 259C1360.84 252.917 1356.13 245.917 1352.71 238C1349.3 230.083 1347.59 221.583 1347.59 212.5C1347.59 203.417 1349.3 194.917 1352.71 187C1356.13 179 1360.84 172 1366.84 166C1372.92 159.917 1379.92 155.167 1387.84 151.75C1395.75 148.333 1404.25 146.625 1413.34 146.625C1423 146.625 1431.42 148.875 1438.59 153.375C1445.75 157.875 1451.46 163.792 1455.71 171.125V87.5ZM1413.59 257.875C1421.84 257.875 1428.96 255.875 1434.96 251.875C1441.05 247.792 1445.71 242.292 1448.96 235.375C1452.3 228.458 1453.96 220.833 1453.96 212.5C1453.96 204 1452.3 196.333 1448.96 189.5C1445.63 182.583 1440.92 177.125 1434.84 173.125C1428.84 169.042 1421.75 167 1413.59 167C1405.34 167 1397.84 169.042 1391.09 173.125C1384.42 177.208 1379.09 182.708 1375.09 189.625C1371.09 196.458 1369.09 204.083 1369.09 212.5C1369.09 220.917 1371.13 228.583 1375.21 235.5C1379.3 242.333 1384.71 247.792 1391.46 251.875C1398.21 255.875 1405.59 257.875 1413.59 257.875Z" fill="black"/>
<path d="M431.673 310.1V314.888H418.392V350H413.604V314.888H400.352V310.1H431.673ZM430.079 339.17V321.5H434.867V338.115C434.867 339.559 435.218 340.87 435.921 342.048C436.624 343.226 437.565 344.167 438.743 344.87C439.94 345.554 441.251 345.896 442.676 345.896C444.12 345.896 445.421 345.554 446.58 344.87C447.758 344.167 448.699 343.226 449.402 342.048C450.105 340.87 450.456 339.559 450.456 338.115V321.5H455.244L455.273 350H450.485L450.456 346.38C449.449 347.71 448.176 348.774 446.637 349.572C445.098 350.352 443.436 350.741 441.65 350.741C439.522 350.741 437.574 350.228 435.807 349.202C434.059 348.157 432.663 346.76 431.618 345.012C430.592 343.264 430.079 341.317 430.079 339.17ZM458.719 350V321.5H463.507V325.062C464.514 323.732 465.787 322.678 467.326 321.899C468.865 321.101 470.537 320.702 472.342 320.702C473.444 320.702 474.508 320.844 475.534 321.129L473.596 325.917C472.817 325.67 472.057 325.547 471.316 325.547C469.891 325.547 468.58 325.898 467.383 326.601C466.205 327.285 465.265 328.216 464.562 329.394C463.859 330.572 463.507 331.883 463.507 333.327V350H458.719ZM502.062 332.273V350H497.274V333.327C497.274 331.883 496.922 330.572 496.219 329.394C495.516 328.216 494.576 327.285 493.398 326.601C492.22 325.898 490.909 325.547 489.465 325.547C488.04 325.547 486.729 325.898 485.532 326.601C484.354 327.285 483.413 328.216 482.71 329.394C482.007 330.572 481.656 331.883 481.656 333.327V350H476.868V321.5H481.656V325.062C482.663 323.732 483.936 322.678 485.475 321.899C487.014 321.101 488.686 320.702 490.491 320.702C492.619 320.702 494.557 321.224 496.305 322.269C498.072 323.295 499.468 324.682 500.494 326.43C501.539 328.178 502.062 330.126 502.062 332.273ZM530.945 350.741C528.798 350.741 526.727 350.409 524.732 349.743C522.737 349.059 520.989 348.09 519.488 346.836C518.006 345.582 516.952 344.091 516.325 342.362L520.799 340.68C521.179 341.744 521.882 342.675 522.908 343.473C523.953 344.252 525.179 344.86 526.585 345.297C527.991 345.734 529.444 345.953 530.945 345.953C532.655 345.953 534.242 345.677 535.705 345.126C537.187 344.556 538.384 343.768 539.296 342.761C540.208 341.754 540.664 340.576 540.664 339.227C540.664 337.84 540.189 336.709 539.239 335.835C538.289 334.942 537.073 334.239 535.591 333.726C534.109 333.194 532.56 332.786 530.945 332.501C528.19 332.045 525.72 331.399 523.535 330.563C521.369 329.708 519.65 328.52 518.377 327C517.123 325.48 516.496 323.476 516.496 320.987C516.496 318.669 517.161 316.645 518.491 314.916C519.84 313.187 521.616 311.848 523.82 310.898C526.024 309.948 528.399 309.473 530.945 309.473C533.054 309.473 535.097 309.805 537.073 310.47C539.068 311.116 540.825 312.066 542.345 313.32C543.865 314.574 544.958 316.104 545.623 317.909L541.091 319.562C540.711 318.479 539.999 317.548 538.954 316.769C537.928 315.971 536.712 315.363 535.306 314.945C533.919 314.508 532.465 314.289 530.945 314.289C529.254 314.27 527.677 314.546 526.214 315.116C524.751 315.686 523.564 316.474 522.652 317.481C521.74 318.488 521.284 319.657 521.284 320.987C521.284 322.583 521.702 323.808 522.538 324.663C523.393 325.499 524.552 326.126 526.015 326.544C527.478 326.962 529.121 327.333 530.945 327.656C533.529 328.093 535.923 328.786 538.127 329.736C540.331 330.667 542.098 331.912 543.428 333.47C544.777 335.028 545.452 336.947 545.452 339.227C545.452 341.545 544.777 343.568 543.428 345.297C542.098 347.026 540.331 348.366 538.127 349.316C535.923 350.266 533.529 350.741 530.945 350.741ZM573.075 350H567.574L559.993 336.918L554.749 343.188V350H549.961V307.25H554.749V335.75L566.691 321.5H572.932L563.242 333.042L573.075 350ZM575.847 321.5H580.635V350H575.847V321.5ZM578.298 316.854C577.538 316.854 576.902 316.607 576.389 316.113C575.876 315.619 575.619 315.002 575.619 314.261C575.619 313.52 575.876 312.902 576.389 312.408C576.902 311.914 577.529 311.667 578.27 311.667C579.011 311.667 579.638 311.914 580.151 312.408C580.664 312.902 580.92 313.52 580.92 314.261C580.92 315.002 580.664 315.619 580.151 316.113C579.657 316.607 579.039 316.854 578.298 316.854ZM589.711 364.25H584.923V321.5H589.711V326.373C590.68 324.701 591.972 323.352 593.587 322.326C595.202 321.281 597.121 320.759 599.344 320.759C601.415 320.759 603.353 321.148 605.158 321.927C606.982 322.706 608.578 323.789 609.946 325.176C611.314 326.544 612.387 328.131 613.166 329.936C613.945 331.741 614.335 333.679 614.335 335.75C614.335 337.821 613.945 339.768 613.166 341.592C612.387 343.416 611.314 345.022 609.946 346.409C608.578 347.777 606.982 348.85 605.158 349.629C603.353 350.409 601.415 350.798 599.344 350.798C597.121 350.798 595.202 350.285 593.587 349.259C591.972 348.214 590.68 346.855 589.711 345.183V364.25ZM599.287 325.404C597.444 325.404 595.829 325.87 594.442 326.801C593.055 327.732 591.981 328.976 591.221 330.534C590.48 332.092 590.11 333.831 590.11 335.75C590.11 337.65 590.48 339.388 591.221 340.965C591.981 342.542 593.045 343.796 594.413 344.727C595.8 345.658 597.425 346.124 599.287 346.124C601.13 346.124 602.821 345.668 604.36 344.756C605.899 343.825 607.134 342.58 608.065 341.022C608.996 339.445 609.461 337.688 609.461 335.75C609.461 333.85 609.005 332.121 608.093 330.563C607.181 328.986 605.956 327.732 604.417 326.801C602.878 325.87 601.168 325.404 599.287 325.404ZM658.805 310.1V314.888H645.524V350H640.736V314.888H627.484V310.1H658.805ZM657.682 350V321.5H662.47V325.062C663.477 323.732 664.75 322.678 666.289 321.899C667.828 321.101 669.5 320.702 671.305 320.702C672.407 320.702 673.471 320.844 674.497 321.129L672.559 325.917C671.78 325.67 671.02 325.547 670.279 325.547C668.854 325.547 667.543 325.898 666.346 326.601C665.168 327.285 664.228 328.216 663.525 329.394C662.822 330.572 662.47 331.883 662.47 333.327V350H657.682ZM697.187 321.5H701.975V350H697.187L696.987 345.183C696.094 346.836 694.859 348.176 693.282 349.202C691.724 350.228 689.862 350.741 687.696 350.741C685.606 350.741 683.649 350.352 681.825 349.572C680.001 348.774 678.386 347.682 676.98 346.295C675.593 344.889 674.51 343.274 673.731 341.45C672.952 339.626 672.563 337.659 672.563 335.55C672.563 333.517 672.943 331.598 673.703 329.793C674.463 327.988 675.517 326.411 676.866 325.062C678.234 323.694 679.811 322.63 681.597 321.87C683.383 321.091 685.302 320.702 687.354 320.702C689.596 320.702 691.563 321.234 693.254 322.298C694.945 323.343 696.313 324.701 697.358 326.373L697.187 321.5ZM687.611 346.095C689.492 346.095 691.116 345.639 692.484 344.727C693.871 343.796 694.935 342.542 695.676 340.965C696.436 339.388 696.816 337.65 696.816 335.75C696.816 333.812 696.436 332.064 695.676 330.506C694.916 328.929 693.843 327.684 692.456 326.772C691.088 325.841 689.473 325.376 687.611 325.376C685.73 325.376 684.02 325.841 682.481 326.772C680.942 327.703 679.716 328.957 678.804 330.534C677.911 332.092 677.465 333.831 677.465 335.75C677.465 337.669 677.93 339.417 678.861 340.994C679.792 342.552 681.027 343.796 682.566 344.727C684.105 345.639 685.787 346.095 687.611 346.095ZM724.471 342.476L728.746 344.784C727.454 346.589 725.81 348.033 723.815 349.116C721.839 350.199 719.692 350.741 717.374 350.741C714.752 350.741 712.358 350.066 710.192 348.717C708.045 347.368 706.326 345.563 705.034 343.302C703.761 341.022 703.124 338.505 703.124 335.75C703.124 333.66 703.495 331.712 704.236 329.907C704.977 328.083 705.993 326.487 707.285 325.119C708.596 323.732 710.116 322.649 711.845 321.87C713.574 321.091 715.417 320.702 717.374 320.702C719.692 320.702 721.839 321.243 723.815 322.326C725.81 323.409 727.454 324.863 728.746 326.687L724.471 328.995C723.559 327.874 722.476 327.01 721.222 326.402C719.968 325.794 718.685 325.49 717.374 325.49C715.607 325.49 714.002 325.965 712.558 326.915C711.133 327.846 710.002 329.09 709.166 330.648C708.33 332.206 707.912 333.907 707.912 335.75C707.912 337.593 708.33 339.293 709.166 340.851C710.021 342.39 711.161 343.625 712.586 344.556C714.03 345.487 715.626 345.953 717.374 345.953C718.78 345.953 720.101 345.63 721.336 344.984C722.571 344.338 723.616 343.502 724.471 342.476ZM730.943 321.5H735.731V350H730.943V321.5ZM733.394 316.854C732.634 316.854 731.998 316.607 731.485 316.113C730.972 315.619 730.715 315.002 730.715 314.261C730.715 313.52 730.972 312.902 731.485 312.408C731.998 311.914 732.625 311.667 733.366 311.667C734.107 311.667 734.734 311.914 735.247 312.408C735.76 312.902 736.016 313.52 736.016 314.261C736.016 315.002 735.76 315.619 735.247 316.113C734.753 316.607 734.135 316.854 733.394 316.854ZM765.324 332.273V350H760.536V333.327C760.536 331.883 760.184 330.572 759.481 329.394C758.778 328.216 757.838 327.285 756.66 326.601C755.482 325.898 754.171 325.547 752.727 325.547C751.302 325.547 749.991 325.898 748.794 326.601C747.616 327.285 746.675 328.216 745.972 329.394C745.269 330.572 744.918 331.883 744.918 333.327V350H740.13V321.5H744.918V325.062C745.925 323.732 747.198 322.678 748.737 321.899C750.276 321.101 751.948 320.702 753.753 320.702C755.881 320.702 757.819 321.224 759.567 322.269C761.334 323.295 762.73 324.682 763.756 326.43C764.801 328.178 765.324 330.126 765.324 332.273ZM790.445 321.5H795.233V350.912C795.233 352.793 794.825 354.541 794.008 356.156C793.21 357.79 792.127 359.206 790.759 360.403C789.391 361.619 787.833 362.559 786.085 363.224C784.337 363.908 782.513 364.25 780.613 364.25C778.637 364.25 776.727 363.804 774.884 362.911C773.041 362.037 771.426 360.859 770.039 359.377C768.671 357.914 767.683 356.27 767.075 354.446L771.464 352.451C771.825 353.762 772.471 354.94 773.402 355.985C774.352 357.049 775.454 357.885 776.708 358.493C777.981 359.12 779.283 359.434 780.613 359.434C781.867 359.434 783.073 359.215 784.232 358.778C785.41 358.341 786.465 357.733 787.396 356.954C788.346 356.194 789.087 355.292 789.619 354.247C790.17 353.221 790.445 352.109 790.445 350.912V345.24C789.476 346.874 788.194 348.204 786.598 349.23C785.021 350.238 783.178 350.741 781.069 350.741C779.055 350.741 777.164 350.352 775.397 349.572C773.63 348.793 772.082 347.72 770.752 346.352C769.422 344.965 768.377 343.369 767.617 341.564C766.857 339.759 766.477 337.821 766.477 335.75C766.477 333.679 766.857 331.741 767.617 329.936C768.377 328.112 769.422 326.516 770.752 325.148C772.082 323.761 773.63 322.678 775.397 321.899C777.164 321.12 779.055 320.73 781.069 320.73C783.178 320.73 785.021 321.234 786.598 322.241C788.194 323.248 789.476 324.578 790.445 326.231V321.5ZM781.097 346.095C782.94 346.095 784.536 345.62 785.885 344.67C787.253 343.72 788.308 342.457 789.049 340.88C789.79 339.303 790.16 337.593 790.16 335.75C790.16 333.85 789.78 332.121 789.02 330.563C788.279 328.986 787.225 327.732 785.857 326.801C784.508 325.851 782.921 325.376 781.097 325.376C779.311 325.376 777.677 325.841 776.195 326.772C774.713 327.703 773.535 328.957 772.661 330.534C771.806 332.092 771.379 333.831 771.379 335.75C771.379 337.669 771.816 339.417 772.69 340.994C773.583 342.552 774.761 343.796 776.224 344.727C777.706 345.639 779.33 346.095 781.097 346.095ZM811.22 350V310.1H824.415C827.17 310.1 829.754 310.622 832.167 311.667C834.58 312.693 836.699 314.128 838.523 315.971C840.347 317.795 841.772 319.913 842.798 322.326C843.843 324.72 844.365 327.295 844.365 330.05C844.365 332.805 843.843 335.389 842.798 337.802C841.772 340.196 840.347 342.314 838.523 344.157C836.699 345.981 834.58 347.416 832.167 348.461C829.754 349.487 827.17 350 824.415 350H811.22ZM816.008 345.212H824.415C826.505 345.212 828.462 344.822 830.286 344.043C832.129 343.245 833.744 342.153 835.131 340.766C836.518 339.379 837.601 337.773 838.38 335.949C839.178 334.106 839.577 332.14 839.577 330.05C839.577 327.96 839.178 326.003 838.38 324.179C837.601 322.336 836.509 320.721 835.103 319.334C833.716 317.947 832.11 316.864 830.286 316.085C828.462 315.287 826.505 314.888 824.415 314.888H816.008V345.212ZM869.649 321.5H874.437V350H869.649L869.45 345.183C868.557 346.836 867.322 348.176 865.745 349.202C864.187 350.228 862.325 350.741 860.159 350.741C858.069 350.741 856.112 350.352 854.288 349.572C852.464 348.774 850.849 347.682 849.443 346.295C848.056 344.889 846.973 343.274 846.194 341.45C845.415 339.626 845.025 337.659 845.025 335.55C845.025 333.517 845.405 331.598 846.165 329.793C846.925 327.988 847.98 326.411 849.329 325.062C850.697 323.694 852.274 322.63 854.06 321.87C855.846 321.091 857.765 320.702 859.817 320.702C862.059 320.702 864.025 321.234 865.716 322.298C867.407 323.343 868.775 324.701 869.82 326.373L869.649 321.5ZM860.073 346.095C861.954 346.095 863.579 345.639 864.947 344.727C866.334 343.796 867.398 342.542 868.139 340.965C868.899 339.388 869.279 337.65 869.279 335.75C869.279 333.812 868.899 332.064 868.139 330.506C867.379 328.929 866.305 327.684 864.918 326.772C863.55 325.841 861.935 325.376 860.073 325.376C858.192 325.376 856.482 325.841 854.943 326.772C853.404 327.703 852.179 328.957 851.267 330.534C850.374 332.092 849.927 333.831 849.927 335.75C849.927 337.669 850.393 339.417 851.324 340.994C852.255 342.552 853.49 343.796 855.029 344.727C856.568 345.639 858.249 346.095 860.073 346.095ZM892.617 326.288H886.147L886.119 350H881.331L881.359 326.288H876.457V321.5H881.359L881.331 312.551H886.119L886.147 321.5H892.617V326.288ZM917.636 321.5H922.424V350H917.636L917.437 345.183C916.544 346.836 915.309 348.176 913.732 349.202C912.174 350.228 910.312 350.741 908.146 350.741C906.056 350.741 904.099 350.352 902.275 349.572C900.451 348.774 898.836 347.682 897.43 346.295C896.043 344.889 894.96 343.274 894.181 341.45C893.402 339.626 893.012 337.659 893.012 335.55C893.012 333.517 893.392 331.598 894.152 329.793C894.912 327.988 895.967 326.411 897.316 325.062C898.684 323.694 900.261 322.63 902.047 321.87C903.833 321.091 905.752 320.702 907.804 320.702C910.046 320.702 912.012 321.234 913.703 322.298C915.394 323.343 916.762 324.701 917.807 326.373L917.636 321.5ZM908.06 346.095C909.941 346.095 911.566 345.639 912.934 344.727C914.321 343.796 915.385 342.542 916.126 340.965C916.886 339.388 917.266 337.65 917.266 335.75C917.266 333.812 916.886 332.064 916.126 330.506C915.366 328.929 914.292 327.684 912.905 326.772C911.537 325.841 909.922 325.376 908.06 325.376C906.179 325.376 904.469 325.841 902.93 326.772C901.391 327.703 900.166 328.957 899.254 330.534C898.361 332.092 897.914 333.831 897.914 335.75C897.914 337.669 898.38 339.417 899.311 340.994C900.242 342.552 901.477 343.796 903.016 344.727C904.555 345.639 906.236 346.095 908.06 346.095ZM938.109 350V310.1H942.897V350H938.109ZM973.528 332.273V350H968.74V333.327C968.74 331.883 968.388 330.572 967.685 329.394C966.982 328.216 966.042 327.285 964.864 326.601C963.686 325.898 962.375 325.547 960.931 325.547C959.506 325.547 958.195 325.898 956.998 326.601C955.82 327.285 954.879 328.216 954.176 329.394C953.473 330.572 953.122 331.883 953.122 333.327V350H948.334V321.5H953.122V325.062C954.129 323.732 955.402 322.678 956.941 321.899C958.48 321.101 960.152 320.702 961.957 320.702C964.085 320.702 966.023 321.224 967.771 322.269C969.538 323.295 970.934 324.682 971.96 326.43C973.005 328.178 973.528 330.126 973.528 332.273ZM991.71 326.288H985.241L985.212 350H980.424L980.453 326.288H975.551V321.5H980.453L980.424 312.551H985.212L985.241 321.5H991.71V326.288ZM1006.36 350.741C1003.73 350.741 1001.34 350.066 999.173 348.717C997.026 347.368 995.307 345.563 994.015 343.302C992.742 341.022 992.105 338.505 992.105 335.75C992.105 333.66 992.476 331.712 993.217 329.907C993.958 328.083 994.974 326.487 996.266 325.119C997.577 323.732 999.097 322.649 1000.83 321.87C1002.56 321.091 1004.4 320.702 1006.36 320.702C1008.98 320.702 1011.36 321.376 1013.51 322.725C1015.67 324.074 1017.39 325.889 1018.67 328.169C1019.96 330.449 1020.61 332.976 1020.61 335.75C1020.61 337.821 1020.23 339.759 1019.49 341.564C1018.75 343.369 1017.73 344.965 1016.42 346.352C1015.12 347.72 1013.61 348.793 1011.88 349.572C1010.17 350.352 1008.33 350.741 1006.36 350.741ZM1006.36 345.953C1008.14 345.953 1009.75 345.487 1011.17 344.556C1012.62 343.606 1013.75 342.362 1014.56 340.823C1015.4 339.265 1015.82 337.574 1015.82 335.75C1015.82 333.888 1015.39 332.178 1014.53 330.62C1013.7 329.062 1012.57 327.817 1011.14 326.886C1009.72 325.955 1008.12 325.49 1006.36 325.49C1004.57 325.49 1002.96 325.965 1001.54 326.915C1000.11 327.846 998.983 329.09 998.147 330.648C997.311 332.206 996.893 333.907 996.893 335.75C996.893 337.65 997.321 339.379 998.176 340.937C999.031 342.476 1000.18 343.701 1001.62 344.613C1003.07 345.506 1004.65 345.953 1006.36 345.953ZM1034.84 350V310.1H1048.87C1050.99 310.1 1052.91 310.622 1054.62 311.667C1056.35 312.712 1057.72 314.128 1058.73 315.914C1059.75 317.681 1060.27 319.657 1060.27 321.842C1060.27 323.761 1059.89 325.509 1059.13 327.086C1058.37 328.663 1057.32 329.983 1055.99 331.047C1054.68 332.092 1053.19 332.814 1051.52 333.213L1061.21 350H1055.68L1046.16 333.612H1039.63V350H1034.84ZM1039.63 328.824H1048.38C1049.67 328.824 1050.86 328.511 1051.94 327.884C1053.03 327.238 1053.88 326.373 1054.51 325.29C1055.16 324.188 1055.48 322.953 1055.48 321.585C1055.48 320.198 1055.16 318.963 1054.51 317.88C1053.88 316.778 1053.03 315.914 1051.94 315.287C1050.86 314.641 1049.67 314.318 1048.38 314.318H1039.63V328.824ZM1076.16 350.741C1073.54 350.741 1071.15 350.066 1068.98 348.717C1066.84 347.368 1065.12 345.563 1063.82 343.302C1062.55 341.022 1061.91 338.505 1061.91 335.75C1061.91 333.66 1062.29 331.712 1063.03 329.907C1063.77 328.083 1064.78 326.487 1066.08 325.119C1067.39 323.732 1068.91 322.649 1070.64 321.87C1072.36 321.091 1074.21 320.702 1076.16 320.702C1078.31 320.702 1080.28 321.139 1082.06 322.013C1083.87 322.868 1085.41 324.065 1086.68 325.604C1087.97 327.143 1088.93 328.929 1089.56 330.962C1090.21 332.995 1090.44 335.17 1090.27 337.488H1067.02C1067.24 339.103 1067.78 340.547 1068.61 341.82C1069.45 343.074 1070.51 344.072 1071.8 344.813C1073.12 345.554 1074.57 345.934 1076.16 345.953C1077.87 345.953 1079.42 345.516 1080.81 344.642C1082.2 343.749 1083.32 342.533 1084.17 340.994L1089.05 342.134C1087.91 344.661 1086.19 346.732 1083.89 348.347C1081.59 349.943 1079.01 350.741 1076.16 350.741ZM1066.87 333.726H1085.46C1085.3 332.13 1084.79 330.677 1083.92 329.366C1083.04 328.036 1081.93 326.972 1080.58 326.174C1079.23 325.376 1077.76 324.977 1076.16 324.977C1074.57 324.977 1073.11 325.366 1071.78 326.145C1070.45 326.924 1069.34 327.979 1068.47 329.309C1067.61 330.62 1067.08 332.092 1066.87 333.726ZM1115.54 321.5H1120.33V350H1115.54L1115.34 345.183C1114.45 346.836 1113.21 348.176 1111.64 349.202C1110.08 350.228 1108.22 350.741 1106.05 350.741C1103.96 350.741 1102 350.352 1100.18 349.572C1098.36 348.774 1096.74 347.682 1095.34 346.295C1093.95 344.889 1092.87 343.274 1092.09 341.45C1091.31 339.626 1090.92 337.659 1090.92 335.55C1090.92 333.517 1091.3 331.598 1092.06 329.793C1092.82 327.988 1093.87 326.411 1095.22 325.062C1096.59 323.694 1098.17 322.63 1099.95 321.87C1101.74 321.091 1103.66 320.702 1105.71 320.702C1107.95 320.702 1109.92 321.234 1111.61 322.298C1113.3 323.343 1114.67 324.701 1115.71 326.373L1115.54 321.5ZM1105.97 346.095C1107.85 346.095 1109.47 345.639 1110.84 344.727C1112.23 343.796 1113.29 342.542 1114.03 340.965C1114.79 339.388 1115.17 337.65 1115.17 335.75C1115.17 333.812 1114.79 332.064 1114.03 330.506C1113.27 328.929 1112.2 327.684 1110.81 326.772C1109.44 325.841 1107.83 325.376 1105.97 325.376C1104.09 325.376 1102.38 325.841 1100.84 326.772C1099.3 327.703 1098.07 328.957 1097.16 330.534C1096.27 332.092 1095.82 333.831 1095.82 335.75C1095.82 337.669 1096.29 339.417 1097.22 340.994C1098.15 342.552 1099.38 343.796 1100.92 344.727C1102.46 345.639 1104.14 346.095 1105.97 346.095ZM1124.08 350V307.25H1128.87V350H1124.08ZM1163.32 350.741C1160.62 350.741 1158.08 350.209 1155.71 349.145C1153.33 348.062 1151.24 346.58 1149.44 344.699C1147.65 342.799 1146.24 340.595 1145.22 338.087C1144.21 335.579 1143.71 332.9 1143.71 330.05C1143.71 327.2 1144.21 324.521 1145.22 322.013C1146.24 319.505 1147.65 317.31 1149.44 315.429C1151.24 313.529 1153.33 312.047 1155.71 310.983C1158.08 309.9 1160.62 309.359 1163.32 309.359C1166.55 309.359 1169.52 310.109 1172.24 311.61C1174.95 313.111 1177.2 315.106 1178.99 317.595L1174.74 319.875C1173.41 318.127 1171.73 316.74 1169.7 315.714C1167.69 314.669 1165.56 314.147 1163.32 314.147C1161.24 314.147 1159.31 314.565 1157.5 315.401C1155.72 316.237 1154.15 317.386 1152.8 318.849C1151.45 320.312 1150.4 322.003 1149.64 323.922C1148.88 325.841 1148.5 327.884 1148.5 330.05C1148.5 332.235 1148.88 334.287 1149.64 336.206C1150.41 338.125 1151.48 339.816 1152.83 341.279C1154.2 342.742 1155.77 343.891 1157.56 344.727C1159.36 345.544 1161.28 345.953 1163.32 345.953C1165.63 345.953 1167.78 345.43 1169.76 344.385C1171.75 343.321 1173.41 341.934 1174.74 340.224L1178.99 342.533C1177.2 345.022 1174.95 347.017 1172.24 348.518C1169.52 350 1166.55 350.741 1163.32 350.741ZM1193.4 350.741C1190.78 350.741 1188.39 350.066 1186.22 348.717C1184.08 347.368 1182.36 345.563 1181.06 343.302C1179.79 341.022 1179.15 338.505 1179.15 335.75C1179.15 333.66 1179.53 331.712 1180.27 329.907C1181.01 328.083 1182.02 326.487 1183.32 325.119C1184.63 323.732 1186.15 322.649 1187.88 321.87C1189.6 321.091 1191.45 320.702 1193.4 320.702C1196.03 320.702 1198.41 321.376 1200.56 322.725C1202.72 324.074 1204.44 325.889 1205.72 328.169C1207.01 330.449 1207.65 332.976 1207.65 335.75C1207.65 337.821 1207.28 339.759 1206.54 341.564C1205.8 343.369 1204.78 344.965 1203.47 346.352C1202.17 347.72 1200.66 348.793 1198.93 349.572C1197.22 350.352 1195.38 350.741 1193.4 350.741ZM1193.4 345.953C1195.19 345.953 1196.8 345.487 1198.22 344.556C1199.67 343.606 1200.8 342.362 1201.61 340.823C1202.45 339.265 1202.87 337.574 1202.87 335.75C1202.87 333.888 1202.44 332.178 1201.58 330.62C1200.75 329.062 1199.62 327.817 1198.19 326.886C1196.77 325.955 1195.17 325.49 1193.4 325.49C1191.62 325.49 1190.01 325.965 1188.59 326.915C1187.16 327.846 1186.03 329.09 1185.2 330.648C1184.36 332.206 1183.94 333.907 1183.94 335.75C1183.94 337.65 1184.37 339.379 1185.23 340.937C1186.08 342.476 1187.23 343.701 1188.67 344.613C1190.12 345.506 1191.69 345.953 1193.4 345.953ZM1235.28 332.273V350H1230.5V333.327C1230.5 331.883 1230.14 330.572 1229.44 329.394C1228.74 328.216 1227.8 327.285 1226.62 326.601C1225.44 325.898 1224.13 325.547 1222.69 325.547C1221.26 325.547 1219.95 325.898 1218.75 326.601C1217.58 327.285 1216.64 328.216 1215.93 329.394C1215.23 330.572 1214.88 331.883 1214.88 333.327V350H1210.09V321.5H1214.88V325.062C1215.89 323.732 1217.16 322.678 1218.7 321.899C1220.24 321.101 1221.91 320.702 1223.71 320.702C1225.84 320.702 1227.78 321.224 1229.53 322.269C1231.29 323.295 1232.69 324.682 1233.72 326.43C1234.76 328.178 1235.28 330.126 1235.28 332.273ZM1252.74 350H1246.62L1236.21 321.443H1241.32L1249.67 344.442L1258.02 321.443H1263.12L1252.74 350ZM1276.91 350.741C1274.29 350.741 1271.89 350.066 1269.73 348.717C1267.58 347.368 1265.86 345.563 1264.57 343.302C1263.29 341.022 1262.66 338.505 1262.66 335.75C1262.66 333.66 1263.03 331.712 1263.77 329.907C1264.51 328.083 1265.53 326.487 1266.82 325.119C1268.13 323.732 1269.65 322.649 1271.38 321.87C1273.11 321.091 1274.95 320.702 1276.91 320.702C1279.05 320.702 1281.02 321.139 1282.81 322.013C1284.61 322.868 1286.15 324.065 1287.42 325.604C1288.72 327.143 1289.68 328.929 1290.3 330.962C1290.95 332.995 1291.19 335.17 1291.01 337.488H1267.76C1267.99 339.103 1268.52 340.547 1269.35 341.82C1270.19 343.074 1271.25 344.072 1272.55 344.813C1273.86 345.554 1275.31 345.934 1276.91 345.953C1278.62 345.953 1280.17 345.516 1281.55 344.642C1282.94 343.749 1284.06 342.533 1284.92 340.994L1289.79 342.134C1288.65 344.661 1286.93 346.732 1284.63 348.347C1282.33 349.943 1279.76 350.741 1276.91 350.741ZM1267.62 333.726H1286.2C1286.05 332.13 1285.53 330.677 1284.66 329.366C1283.79 328.036 1282.67 326.972 1281.32 326.174C1279.98 325.376 1278.5 324.977 1276.91 324.977C1275.31 324.977 1273.85 325.366 1272.52 326.145C1271.19 326.924 1270.09 327.979 1269.21 329.309C1268.36 330.62 1267.83 332.092 1267.62 333.726ZM1293.54 350V321.5H1298.33V325.062C1299.33 323.732 1300.61 322.678 1302.14 321.899C1303.68 321.101 1305.36 320.702 1307.16 320.702C1308.26 320.702 1309.33 320.844 1310.35 321.129L1308.41 325.917C1307.64 325.67 1306.88 325.547 1306.13 325.547C1304.71 325.547 1303.4 325.898 1302.2 326.601C1301.02 327.285 1300.08 328.216 1299.38 329.394C1298.68 330.572 1298.33 331.883 1298.33 333.327V350H1293.54ZM1320.27 350.542C1318.73 350.485 1317.23 350.2 1315.76 349.686C1314.32 349.154 1313.05 348.442 1311.95 347.549C1310.86 346.637 1310.07 345.592 1309.58 344.414L1313.68 342.647C1313.97 343.293 1314.48 343.901 1315.22 344.471C1315.96 345.041 1316.82 345.497 1317.79 345.839C1318.76 346.181 1319.74 346.352 1320.72 346.352C1321.77 346.352 1322.75 346.19 1323.66 345.867C1324.57 345.544 1325.31 345.069 1325.88 344.442C1326.47 343.796 1326.77 343.027 1326.77 342.134C1326.77 341.184 1326.44 340.443 1325.8 339.911C1325.17 339.36 1324.37 338.932 1323.4 338.628C1322.45 338.305 1321.48 338.001 1320.5 337.716C1318.54 337.222 1316.79 336.633 1315.25 335.949C1313.71 335.246 1312.5 334.363 1311.6 333.299C1310.73 332.216 1310.29 330.838 1310.29 329.166C1310.29 327.399 1310.78 325.87 1311.75 324.578C1312.73 323.286 1314.03 322.288 1315.62 321.585C1317.22 320.882 1318.93 320.531 1320.75 320.531C1323.05 320.531 1325.15 321.025 1327.05 322.013C1328.95 323.001 1330.37 324.34 1331.3 326.031L1327.45 328.283C1327.13 327.599 1326.63 327 1325.97 326.487C1325.3 325.955 1324.54 325.537 1323.69 325.233C1322.83 324.929 1321.96 324.768 1321.07 324.749C1319.96 324.711 1318.93 324.853 1317.96 325.176C1317.01 325.499 1316.24 325.993 1315.65 326.658C1315.08 327.304 1314.8 328.112 1314.8 329.081C1314.8 330.031 1315.1 330.753 1315.71 331.247C1316.33 331.741 1317.14 332.14 1318.13 332.444C1319.14 332.729 1320.23 333.061 1321.41 333.441C1323.14 333.992 1324.75 334.629 1326.25 335.351C1327.75 336.073 1328.96 336.975 1329.87 338.058C1330.8 339.141 1331.26 340.481 1331.24 342.077C1331.24 343.825 1330.72 345.354 1329.67 346.665C1328.63 347.957 1327.27 348.945 1325.6 349.629C1323.94 350.314 1322.17 350.618 1320.27 350.542ZM1356.48 321.5H1361.27V350H1356.48L1356.28 345.183C1355.39 346.836 1354.15 348.176 1352.57 349.202C1351.02 350.228 1349.15 350.741 1346.99 350.741C1344.9 350.741 1342.94 350.352 1341.12 349.572C1339.29 348.774 1337.68 347.682 1336.27 346.295C1334.88 344.889 1333.8 343.274 1333.02 341.45C1332.24 339.626 1331.85 337.659 1331.85 335.55C1331.85 333.517 1332.23 331.598 1332.99 329.793C1333.75 327.988 1334.81 326.411 1336.16 325.062C1337.53 323.694 1339.1 322.63 1340.89 321.87C1342.67 321.091 1344.59 320.702 1346.65 320.702C1348.89 320.702 1350.85 321.234 1352.55 322.298C1354.24 323.343 1355.6 324.701 1356.65 326.373L1356.48 321.5ZM1346.9 346.095C1348.78 346.095 1350.41 345.639 1351.78 344.727C1353.16 343.796 1354.23 342.542 1354.97 340.965C1355.73 339.388 1356.11 337.65 1356.11 335.75C1356.11 333.812 1355.73 332.064 1354.97 330.506C1354.21 328.929 1353.13 327.684 1351.75 326.772C1350.38 325.841 1348.76 325.376 1346.9 325.376C1345.02 325.376 1343.31 325.841 1341.77 326.772C1340.23 327.703 1339.01 328.957 1338.1 330.534C1337.2 332.092 1336.76 333.831 1336.76 335.75C1336.76 337.669 1337.22 339.417 1338.15 340.994C1339.08 342.552 1340.32 343.796 1341.86 344.727C1343.4 345.639 1345.08 346.095 1346.9 346.095ZM1379.45 326.288H1372.98L1372.95 350H1368.16L1368.19 326.288H1363.29V321.5H1368.19L1368.16 312.551H1372.95L1372.98 321.5H1379.45V326.288ZM1382 321.5H1386.78V350H1382V321.5ZM1384.45 316.854C1383.69 316.854 1383.05 316.607 1382.54 316.113C1382.03 315.619 1381.77 315.002 1381.77 314.261C1381.77 313.52 1382.03 312.902 1382.54 312.408C1383.05 311.914 1383.68 311.667 1384.42 311.667C1385.16 311.667 1385.79 311.914 1386.3 312.408C1386.81 312.902 1387.07 313.52 1387.07 314.261C1387.07 315.002 1386.81 315.619 1386.3 316.113C1385.81 316.607 1385.19 316.854 1384.45 316.854ZM1403.5 350.741C1400.88 350.741 1398.48 350.066 1396.32 348.717C1394.17 347.368 1392.45 345.563 1391.16 343.302C1389.89 341.022 1389.25 338.505 1389.25 335.75C1389.25 333.66 1389.62 331.712 1390.36 329.907C1391.1 328.083 1392.12 326.487 1393.41 325.119C1394.72 323.732 1396.24 322.649 1397.97 321.87C1399.7 321.091 1401.54 320.702 1403.5 320.702C1406.12 320.702 1408.51 321.376 1410.65 322.725C1412.82 324.074 1414.54 325.889 1415.81 328.169C1417.1 330.449 1417.75 332.976 1417.75 335.75C1417.75 337.821 1417.38 339.759 1416.64 341.564C1415.9 343.369 1414.87 344.965 1413.56 346.352C1412.27 347.72 1410.76 348.793 1409.03 349.572C1407.32 350.352 1405.48 350.741 1403.5 350.741ZM1403.5 345.953C1405.29 345.953 1406.89 345.487 1408.32 344.556C1409.76 343.606 1410.89 342.362 1411.71 340.823C1412.54 339.265 1412.96 337.574 1412.96 335.75C1412.96 333.888 1412.54 332.178 1411.68 330.62C1410.84 329.062 1409.71 327.817 1408.29 326.886C1406.86 325.955 1405.27 325.49 1403.5 325.49C1401.71 325.49 1400.11 325.965 1398.68 326.915C1397.26 327.846 1396.13 329.09 1395.29 330.648C1394.46 332.206 1394.04 333.907 1394.04 335.75C1394.04 337.65 1394.47 339.379 1395.32 340.937C1396.18 342.476 1397.33 343.701 1398.77 344.613C1400.21 345.506 1401.79 345.953 1403.5 345.953ZM1445.38 332.273V350H1440.59V333.327C1440.59 331.883 1440.24 330.572 1439.54 329.394C1438.84 328.216 1437.89 327.285 1436.72 326.601C1435.54 325.898 1434.23 325.547 1432.78 325.547C1431.36 325.547 1430.05 325.898 1428.85 326.601C1427.67 327.285 1426.73 328.216 1426.03 329.394C1425.33 330.572 1424.97 331.883 1424.97 333.327V350H1420.19V321.5H1424.97V325.062C1425.98 323.732 1427.25 322.678 1428.79 321.899C1430.33 321.101 1432 320.702 1433.81 320.702C1435.94 320.702 1437.88 321.224 1439.62 322.269C1441.39 323.295 1442.79 324.682 1443.81 326.43C1444.86 328.178 1445.38 330.126 1445.38 332.273ZM1457.49 350.542C1455.95 350.485 1454.45 350.2 1452.99 349.686C1451.55 349.154 1450.27 348.442 1449.17 347.549C1448.09 346.637 1447.3 345.592 1446.81 344.414L1450.91 342.647C1451.19 343.293 1451.71 343.901 1452.45 344.471C1453.19 345.041 1454.04 345.497 1455.01 345.839C1455.98 346.181 1456.96 346.352 1457.95 346.352C1458.99 346.352 1459.97 346.19 1460.88 345.867C1461.8 345.544 1462.54 345.069 1463.11 344.442C1463.7 343.796 1463.99 343.027 1463.99 342.134C1463.99 341.184 1463.67 340.443 1463.02 339.911C1462.39 339.36 1461.6 338.932 1460.63 338.628C1459.68 338.305 1458.71 338.001 1457.72 337.716C1455.76 337.222 1454.02 336.633 1452.48 335.949C1450.94 335.246 1449.72 334.363 1448.83 333.299C1447.95 332.216 1447.52 330.838 1447.52 329.166C1447.52 327.399 1448 325.87 1448.97 324.578C1449.96 323.286 1451.25 322.288 1452.85 321.585C1454.44 320.882 1456.15 320.531 1457.98 320.531C1460.28 320.531 1462.38 321.025 1464.28 322.013C1466.18 323.001 1467.59 324.34 1468.52 326.031L1464.67 328.283C1464.35 327.599 1463.86 327 1463.19 326.487C1462.53 325.955 1461.77 325.537 1460.91 325.233C1460.06 324.929 1459.18 324.768 1458.29 324.749C1457.19 324.711 1456.15 324.853 1455.18 325.176C1454.23 325.499 1453.46 325.993 1452.88 326.658C1452.31 327.304 1452.02 328.112 1452.02 329.081C1452.02 330.031 1452.32 330.753 1452.93 331.247C1453.56 331.741 1454.37 332.14 1455.36 332.444C1456.36 332.729 1457.45 333.061 1458.63 333.441C1460.36 333.992 1461.98 334.629 1463.48 335.351C1464.98 336.073 1466.19 336.975 1467.1 338.058C1468.03 339.141 1468.48 340.481 1468.47 342.077C1468.47 343.825 1467.94 345.354 1466.9 346.665C1465.85 347.957 1464.49 348.945 1462.82 349.629C1461.17 350.314 1459.39 350.618 1457.49 350.542Z" fill="black"/>
</svg>
